<mxfile host="Electron" modified="2023-12-20T06:40:17.228Z" agent="Mozilla/5.0 (Windows NT 10.0; Win64; x64) AppleWebKit/537.36 (KHTML, like Gecko) draw.io/22.1.2 Chrome/114.0.5735.289 Electron/25.9.4 Safari/537.36" etag="IXTzed4-c6iBrVg-3Y6T" version="22.1.2" type="device">
  <diagram name="Page-1" id="6zI-wv7lg0STu66uEUuO">
    <mxGraphModel dx="1004" dy="1845" grid="0" gridSize="10" guides="1" tooltips="1" connect="1" arrows="0" fold="1" page="1" pageScale="1" pageWidth="850" pageHeight="1100" math="0" shadow="0">
      <root>
        <mxCell id="0" />
        <mxCell id="1" parent="0" />
        <mxCell id="-m4xShKr6746js8uL_8x-10" value="Azure&lt;br style=&quot;border-color: var(--border-color);&quot;&gt;&lt;span style=&quot;background-color: rgb(255, 255, 255);&quot;&gt;Resource Health&lt;/span&gt;&lt;br style=&quot;border-color: var(--border-color);&quot;&gt;&lt;span style=&quot;background-color: rgb(255, 255, 255);&quot;&gt;API&lt;/span&gt;" style="verticalLabelPosition=bottom;html=1;verticalAlign=top;align=center;strokeColor=none;fillColor=#00BEF2;shape=mxgraph.azure.health_monitoring;" parent="1" vertex="1">
          <mxGeometry x="598" y="-461.33" width="36" height="29.5" as="geometry" />
        </mxCell>
        <mxCell id="-m4xShKr6746js8uL_8x-14" style="edgeStyle=none;rounded=0;orthogonalLoop=1;jettySize=auto;html=1;entryX=0.183;entryY=0.99;entryDx=0;entryDy=0;entryPerimeter=0;" parent="1" source="-m4xShKr6746js8uL_8x-1" target="-m4xShKr6746js8uL_8x-10" edge="1">
          <mxGeometry relative="1" as="geometry" />
        </mxCell>
        <mxCell id="-m4xShKr6746js8uL_8x-15" value="get resource health&lt;br&gt;HTTP POST" style="text;html=1;strokeColor=none;fillColor=none;align=right;verticalAlign=middle;whiteSpace=wrap;rounded=0;" parent="1" vertex="1">
          <mxGeometry x="83" y="-296" width="119" height="30" as="geometry" />
        </mxCell>
        <mxCell id="-m4xShKr6746js8uL_8x-17" value="Azure&lt;br&gt;Managed Grafana" style="image;aspect=fixed;html=1;points=[];align=center;fontSize=12;image=img/lib/azure2/other/Grafana.svg;" parent="1" vertex="1">
          <mxGeometry x="180" y="-190" width="51.52" height="40" as="geometry" />
        </mxCell>
        <mxCell id="-m4xShKr6746js8uL_8x-18" style="edgeStyle=none;rounded=0;orthogonalLoop=1;jettySize=auto;html=1;entryX=0.547;entryY=1.138;entryDx=0;entryDy=0;entryPerimeter=0;" parent="1" source="-m4xShKr6746js8uL_8x-17" target="-m4xShKr6746js8uL_8x-1" edge="1">
          <mxGeometry relative="1" as="geometry" />
        </mxCell>
        <mxCell id="-m4xShKr6746js8uL_8x-20" value="for &quot;General&quot; resource type&lt;br&gt;(Resource Health API&lt;br&gt;HTTP GET)" style="text;html=1;strokeColor=none;fillColor=none;align=center;verticalAlign=middle;whiteSpace=wrap;rounded=0;" parent="1" vertex="1">
          <mxGeometry x="341" y="-406.28" width="207" height="30" as="geometry" />
        </mxCell>
        <mxCell id="-m4xShKr6746js8uL_8x-22" value="function key&lt;br&gt;authn" style="text;html=1;strokeColor=none;fillColor=none;align=left;verticalAlign=middle;whiteSpace=wrap;rounded=0;" parent="1" vertex="1">
          <mxGeometry x="210" y="-230" width="80" height="30" as="geometry" />
        </mxCell>
        <mxCell id="-m4xShKr6746js8uL_8x-23" value="Azure&lt;br&gt;Monitor" style="image;aspect=fixed;html=1;points=[];align=center;fontSize=12;image=img/lib/azure2/management_governance/Monitor.svg;" parent="1" vertex="1">
          <mxGeometry x="586" y="-213" width="50" height="50" as="geometry" />
        </mxCell>
        <mxCell id="-m4xShKr6746js8uL_8x-24" style="edgeStyle=none;rounded=0;orthogonalLoop=1;jettySize=auto;html=1;entryX=0.067;entryY=0.813;entryDx=0;entryDy=0;entryPerimeter=0;" parent="1" source="-m4xShKr6746js8uL_8x-17" target="-m4xShKr6746js8uL_8x-23" edge="1">
          <mxGeometry relative="1" as="geometry" />
        </mxCell>
        <mxCell id="-m4xShKr6746js8uL_8x-25" value="Grafana Azure Monitor plugin&amp;nbsp;&lt;br&gt;query logs and metrics" style="text;html=1;strokeColor=none;fillColor=none;align=center;verticalAlign=middle;whiteSpace=wrap;rounded=0;" parent="1" vertex="1">
          <mxGeometry x="321" y="-167" width="162" height="30" as="geometry" />
        </mxCell>
        <mxCell id="y73Nl6JPqo7uBuhNpjI--2" value="Log Analytics" style="image;aspect=fixed;html=1;points=[];align=center;fontSize=12;image=img/lib/azure2/management_governance/Log_Analytics_Workspaces.svg;" parent="1" vertex="1">
          <mxGeometry x="601" y="-615" width="38" height="38" as="geometry" />
        </mxCell>
        <mxCell id="y73Nl6JPqo7uBuhNpjI--3" value="" style="endArrow=classic;html=1;rounded=0;" parent="1" source="-m4xShKr6746js8uL_8x-1" target="y73Nl6JPqo7uBuhNpjI--2" edge="1">
          <mxGeometry width="50" height="50" relative="1" as="geometry">
            <mxPoint x="399" y="-491" as="sourcePoint" />
            <mxPoint x="449" y="-541" as="targetPoint" />
          </mxGeometry>
        </mxCell>
        <mxCell id="-m4xShKr6746js8uL_8x-2" value="managed&lt;br&gt;identity" style="image;sketch=0;aspect=fixed;html=1;points=[];align=right;fontSize=12;image=img/lib/mscae/Managed_Identities.svg;verticalAlign=middle;labelPosition=left;verticalLabelPosition=middle;" parent="1" vertex="1">
          <mxGeometry x="221.99" y="-470" width="21.28" height="28" as="geometry" />
        </mxCell>
        <mxCell id="-m4xShKr6746js8uL_8x-1" value="Resource Health Retriever" style="image;sketch=0;aspect=fixed;html=1;points=[];align=center;fontSize=12;image=img/lib/mscae/Functions.svg;" parent="1" vertex="1">
          <mxGeometry x="180" y="-437.275" width="47.71505376344086" height="43.897849462365585" as="geometry" />
        </mxCell>
        <mxCell id="y73Nl6JPqo7uBuhNpjI--4" value="for AppService resource health&lt;br&gt;(query Standard Test logs with Azure Monitor Rest API&lt;br&gt;HTTP GET)" style="text;html=1;strokeColor=none;fillColor=none;align=center;verticalAlign=middle;whiteSpace=wrap;rounded=0;" parent="1" vertex="1">
          <mxGeometry x="341" y="-572" width="171" height="30" as="geometry" />
        </mxCell>
        <mxCell id="y73Nl6JPqo7uBuhNpjI--7" value="managed&lt;br style=&quot;font-size: 9px;&quot;&gt;identity" style="image;sketch=0;aspect=fixed;html=1;points=[];align=right;fontSize=9;image=img/lib/mscae/Managed_Identities.svg;verticalAlign=middle;labelPosition=left;verticalLabelPosition=middle;" parent="1" vertex="1">
          <mxGeometry x="494" y="-610" width="21.41" height="28.17" as="geometry" />
        </mxCell>
        <mxCell id="y73Nl6JPqo7uBuhNpjI--8" value="managed&lt;br style=&quot;font-size: 9px;&quot;&gt;identity" style="image;sketch=0;aspect=fixed;html=1;points=[];align=right;fontSize=9;image=img/lib/mscae/Managed_Identities.svg;verticalAlign=middle;labelPosition=left;verticalLabelPosition=middle;" parent="1" vertex="1">
          <mxGeometry x="495.59" y="-437.28" width="21.41" height="28.17" as="geometry" />
        </mxCell>
        <mxCell id="y73Nl6JPqo7uBuhNpjI--12" value="managed&lt;br style=&quot;font-size: 9px;&quot;&gt;identity" style="image;sketch=0;aspect=fixed;html=1;points=[];align=right;fontSize=9;image=img/lib/mscae/Managed_Identities.svg;verticalAlign=middle;labelPosition=left;verticalLabelPosition=middle;" parent="1" vertex="1">
          <mxGeometry x="458" y="-136" width="21.41" height="28.17" as="geometry" />
        </mxCell>
        <mxCell id="y73Nl6JPqo7uBuhNpjI--16" value="" style="image;aspect=fixed;html=1;points=[];align=center;fontSize=12;image=img/lib/azure2/devops/Application_Insights.svg;" parent="1" vertex="1">
          <mxGeometry x="463.59" y="-754" width="32" height="45.81" as="geometry" />
        </mxCell>
        <mxCell id="y73Nl6JPqo7uBuhNpjI--17" value="web apps" style="image;aspect=fixed;html=1;points=[];align=center;fontSize=12;image=img/lib/azure2/app_services/App_Services.svg;" parent="1" vertex="1">
          <mxGeometry x="213" y="-748.6" width="35" height="35" as="geometry" />
        </mxCell>
        <mxCell id="y73Nl6JPqo7uBuhNpjI--19" value="" style="endArrow=classic;html=1;rounded=0;fillColor=#ffe6cc;strokeColor=#d79b00;" parent="1" source="y73Nl6JPqo7uBuhNpjI--16" target="y73Nl6JPqo7uBuhNpjI--17" edge="1">
          <mxGeometry width="50" height="50" relative="1" as="geometry">
            <mxPoint x="399" y="-491" as="sourcePoint" />
            <mxPoint x="449" y="-541" as="targetPoint" />
          </mxGeometry>
        </mxCell>
        <mxCell id="y73Nl6JPqo7uBuhNpjI--20" value="Standard Tests for each web app&lt;br&gt;(previous Web Test)" style="text;html=1;strokeColor=none;fillColor=none;align=center;verticalAlign=middle;whiteSpace=wrap;rounded=0;" parent="1" vertex="1">
          <mxGeometry x="270" y="-767" width="182" height="30" as="geometry" />
        </mxCell>
        <mxCell id="y73Nl6JPqo7uBuhNpjI--25" value="" style="edgeStyle=none;orthogonalLoop=1;jettySize=auto;html=1;rounded=0;entryX=0.43;entryY=0.114;entryDx=0;entryDy=0;entryPerimeter=0;fillColor=#ffe6cc;strokeColor=#d79b00;" parent="1" source="y73Nl6JPqo7uBuhNpjI--16" target="y73Nl6JPqo7uBuhNpjI--2" edge="1">
          <mxGeometry width="80" relative="1" as="geometry">
            <mxPoint x="511" y="-731" as="sourcePoint" />
            <mxPoint x="584" y="-452" as="targetPoint" />
            <Array as="points">
              <mxPoint x="617" y="-731" />
            </Array>
          </mxGeometry>
        </mxCell>
        <mxCell id="y73Nl6JPqo7uBuhNpjI--26" value="availability result log to LAW" style="text;html=1;strokeColor=none;fillColor=none;align=left;verticalAlign=middle;whiteSpace=wrap;rounded=0;" parent="1" vertex="1">
          <mxGeometry x="621" y="-691" width="99" height="30" as="geometry" />
        </mxCell>
      </root>
    </mxGraphModel>
  </diagram>
</mxfile>
